<?xml version="1.0" encoding="utf-8"?>
<!-- Generator: Adobe Illustrator 16.0.0, SVG Export Plug-In . SVG Version: 6.00 Build 0)  -->
<!DOCTYPE svg PUBLIC "-//W3C//DTD SVG 1.1//EN" "http://www.w3.org/Graphics/SVG/1.1/DTD/svg11.dtd">
<svg version="1.1" xmlns="http://www.w3.org/2000/svg" xmlns:xlink="http://www.w3.org/1999/xlink" x="0px" y="0px" width="400px"
	 height="400px" viewBox="0 0 400 400" enable-background="new 0 0 400 400" xml:space="preserve">
<g id="Layer_1">
	<rect fill="#05964F" width="400" height="400"/>
</g>
<g id="Layer_4">
	<rect y="284" fill="#4567B0" width="400" height="116"/>
</g>
<g id="Layer_5">
	<path fill="#FFFFFF" d="M376.215,369.906c0,10.104-8.189,18.291-18.291,18.291h-59.225c-10.104,0-18.291-8.188-18.291-18.291
		v-59.225c0-10.102,8.188-18.291,18.291-18.291h59.225c10.102,0,18.291,8.189,18.291,18.291V369.906z"/>
	<g>
		<path fill="#4567B0" d="M304.676,320.113l4.398-5.414l43.549,43.549l-5.752,4.059c-1.611,1.611-4.311,2.949-8.096,4.012
			c-3.787,1.064-7.242,1.596-10.367,1.596h-18.754l-5.992,5.992c-1.418,1.418-3.127,2.127-5.123,2.127
			c-1.998,0-3.707-0.709-5.123-2.127c-1.418-1.385-2.127-3.084-2.127-5.098s0.709-3.73,2.127-5.148l5.992-5.992v-18.754
			c0-3.094,0.49-6.604,1.475-10.535C301.865,324.447,303.131,321.691,304.676,320.113z M343.342,311.559l-15.658,15.66l-9.039-9.039
			l15.66-15.66c0.838-0.836,1.998-1.102,3.48-0.797c1.48,0.307,2.834,1.088,4.059,2.344c1.258,1.225,2.031,2.57,2.32,4.037
			C344.453,309.568,344.18,310.721,343.342,311.559z M339.766,339.301l15.66-15.66c0.805-0.836,1.949-1.111,3.432-0.82
			c1.48,0.289,2.834,1.063,4.059,2.32c1.258,1.225,2.031,2.568,2.32,4.035c0.291,1.467,0.016,2.617-0.82,3.455l-15.66,15.709
			L339.766,339.301z"/>
	</g>
</g>
<g id="Layer_2">
	<g>
		<path fill="#D74631" d="M339.859,135.359c0,6.988-1.941,12.812-5.822,17.471c-3.883,4.659-8.865,6.988-14.947,6.988
			c-5.695,0-10.516-1.68-14.461-5.047c-3.949-3.364-5.922-7.765-5.922-13.2c0-1.941,0.516-4.14,1.553-6.6
			c1.035-2.457,1.553-4.271,1.553-5.435c0-6.988-3.299-10.482-9.898-10.482c-17.471,0-35.396,17.343-53.77,52.023
			c-17.859,33.649-26.789,64.577-26.789,92.788v56.293c0,16.179,1.811,26.272,5.436,30.282c4.916,5.436,12.682,8.152,23.293,8.152
			h8.541v7.183H136.816v-7.183h9.317c11.128,0,19.023-3.363,23.682-10.094c2.845-4.14,4.271-13.588,4.271-28.341v-62.311
			c0-36.105-11.583-69.621-34.747-100.552c-23.813-31.704-50.212-47.558-79.199-47.558v-7.182
			c45.812,0,81.204,13.136,106.181,39.405c20.446,21.614,32.739,50.343,36.882,86.187c4.658-29.505,15.529-56.939,32.611-82.305
			c19.539-28.856,40.764-43.288,63.67-43.288c10.352,0,19.281,2.459,26.787,7.376C335.328,116.015,339.859,124.489,339.859,135.359z
			 M158.363,34.226c5.951,0,10.967,2.071,15.044,6.211c4.077,4.143,6.115,9.124,6.115,14.947c0,5.823-2.072,10.773-6.212,14.85
			c-4.143,4.077-9.06,6.115-14.753,6.115c-5.823,0-10.807-2.038-14.947-6.115c-4.143-4.077-6.211-9.026-6.211-14.85
			c0-5.824,2.038-10.804,6.114-14.947C147.589,36.297,152.539,34.226,158.363,34.226z M226.885,34.226
			c5.824,0,10.773,2.071,14.85,6.211c4.076,4.143,6.115,9.124,6.115,14.947c0,5.823-2.039,10.773-6.115,14.85
			s-9.025,6.115-14.85,6.115s-10.807-2.038-14.947-6.115c-4.143-4.077-6.211-9.026-6.211-14.85c0-5.824,2.068-10.804,6.211-14.947
			C216.078,36.297,221.061,34.226,226.885,34.226z"/>
	</g>
</g>
<g id="Layer_3" display="none">
	<g display="inline">
		<path fill="#D74631" d="M364.889,123.791c0,8.239-2.289,15.105-6.863,20.598c-4.578,5.492-10.453,8.238-17.622,8.238
			c-6.716,0-12.398-1.981-17.049-5.95c-4.656-3.966-6.982-9.154-6.982-15.563c0-2.289,0.608-4.881,1.831-7.782
			c1.221-2.896,1.83-5.034,1.83-6.407c0-8.239-3.89-12.358-11.67-12.358c-20.598,0-41.731,20.447-63.391,61.333
			c-21.057,39.671-31.585,76.133-31.585,109.393v66.368c0,19.073,2.135,30.974,6.409,35.7c5.795,6.409,14.951,9.612,27.46,9.612
			h10.07v8.468H125.509v-8.468h10.984c13.12,0,22.429-3.966,27.921-11.901c3.354-4.879,5.034-16.019,5.034-33.411v-73.462
			c0-42.567-13.655-82.081-40.965-118.547c-28.073-37.378-59.198-56.069-93.372-56.069v-8.467c54.01,0,95.736,15.487,125.183,46.457
			c24.105,25.482,38.599,59.352,43.483,101.611c5.491-34.785,18.309-67.13,38.447-97.034c23.035-34.021,48.059-51.035,75.063-51.035
			c12.205,0,22.733,2.899,31.581,8.696C359.547,100.984,364.889,110.976,364.889,123.791z M150.912,4.559
			c7.015,0,12.93,2.442,17.736,7.323c4.806,4.884,7.209,10.756,7.209,17.622c0,6.865-2.443,12.701-7.324,17.507
			c-4.884,4.807-10.681,7.209-17.393,7.209c-6.865,0-12.74-2.403-17.622-7.209c-4.884-4.806-7.322-10.642-7.322-17.507
			c0-6.866,2.402-12.738,7.208-17.622C138.21,7,144.045,4.559,150.912,4.559z M231.696,4.559c6.867,0,12.7,2.442,17.508,7.323
			c4.806,4.884,7.209,10.756,7.209,17.622c0,6.865-2.403,12.701-7.209,17.507c-4.808,4.807-10.641,7.209-17.508,7.209
			c-6.866,0-12.74-2.403-17.622-7.209c-4.885-4.806-7.322-10.642-7.322-17.507c0-6.866,2.438-12.738,7.322-17.622
			C218.956,7,224.83,4.559,231.696,4.559z"/>
	</g>
</g>
</svg>
